<?xml version="1.0" encoding="UTF-8"?>
<svg width="100px" height="100px" viewBox="0 0 100 100" version="1.1" xmlns="http://www.w3.org/2000/svg" xmlns:xlink="http://www.w3.org/1999/xlink">
    <!-- Generator: Sketch 57 (83077) - https://sketch.com -->
    <title>fbwhite</title>
    <desc>Created with Sketch.</desc>
    <g id="Page-1" stroke="none" stroke-width="1" fill="none" fill-rule="evenodd">
        <path d="M94.4806641,0 L5.51923828,0 C2.47109375,0 0,2.47109375 0,5.51923828 L0,94.4807617 C0,97.5287109 2.47021484,100 5.51923828,100 L53.4179688,100 L53.4179688,61.328125 L40.4296875,61.328125 L40.4296875,46.1914063 L53.4179688,46.1914063 L53.4179688,35.0521484 C53.4179688,22.1358398 61.305957,15.1027344 72.8277344,15.1027344 C78.346582,15.1027344 83.0900391,15.5136719 84.4726562,15.6973633 L84.4726562,29.1956055 L76.5266602,29.1992188 C70.2570312,29.1992188 69.0429688,32.1785156 69.0429688,36.5504883 L69.0429688,46.1914063 L84.0319336,46.1914063 L82.0801758,61.328125 L69.0429688,61.328125 L69.0429688,100 L94.4808594,100 C97.5290039,100 100,97.5290039 100,94.480957 L100,5.51923828 C100,2.47109375 97.5289063,0 94.4806641,0" id="fbwhite" fill="#FFFFFF"></path>
    </g>
</svg>