<?xml version="1.0" encoding="UTF-8"?>
<svg width="100px" height="100px" viewBox="0 0 100 100" version="1.1" xmlns="http://www.w3.org/2000/svg" xmlns:xlink="http://www.w3.org/1999/xlink">
    <!-- Generator: Sketch 57 (83077) - https://sketch.com -->
    <title>instawhite</title>
    <desc>Created with Sketch.</desc>
    <g id="Page-1" stroke="none" stroke-width="1" fill="none" fill-rule="evenodd">
        <g id="instawhite" fill="#FFFFFF" fill-rule="nonzero">
            <path d="M49.9843654,0.0312352914 C36.4093545,0.0312352914 34.7071706,0.0882053197 29.3758172,0.329051025 C24.0555748,0.569503835 20.4220401,1.40598101 17.2424741,2.62946148 C13.9555667,3.89419611 11.1680645,5.58640239 8.38929243,8.33766186 C5.61052036,11.0889213 3.90139201,13.8488245 2.62401004,17.1031883 C1.38829476,20.251077 0.543452816,23.8486361 0.300595479,29.1162028 C0.0573413157,34.3947706 0,36.0801012 0,49.520706 C0,62.9611143 0.0573413157,64.6464449 0.300595479,69.9250127 C0.543452816,75.1925794 1.38829476,78.7901385 2.62401004,81.9380272 C3.90139201,85.192391 5.61052036,87.9522942 8.38929243,90.7037501 C11.1680645,93.4550095 13.9555667,95.1472158 17.2424741,96.4119505 C20.4220401,97.6352345 24.0555748,98.4719081 29.3758172,98.7121645 C34.7071706,98.9530102 36.4093545,99.0099802 49.9843654,99.0099802 C63.5591778,99.0099802 65.2613617,98.9530102 70.5927152,98.7121645 C75.9129576,98.4719081 79.5464922,97.6352345 82.7258598,96.4119505 C86.0127672,95.1472158 88.8002695,93.4550095 91.5792399,90.7037501 C94.358012,87.9522942 96.0671403,85.192391 97.3445223,81.9380272 C98.5800392,78.7901385 99.4250795,75.1925794 99.6677385,69.9250127 C99.9109926,64.6464449 99.9685324,62.9611143 99.9685324,49.520706 C99.9685324,36.0801012 99.9109926,34.3947706 99.6677385,29.1162028 C99.4250795,23.8486361 98.5800392,20.251077 97.3445223,17.1031883 C96.0671403,13.8488245 94.358012,11.0889213 91.5792399,8.33766186 C88.8002695,5.58640239 86.0127672,3.89419611 82.7258598,2.62946148 C79.5464922,1.40598101 75.9129576,0.569503835 70.5927152,0.329051025 C65.2613617,0.0882053197 63.5591778,0.0312352914 49.9843654,0.0312352914 Z M49.9843654,8.94841986 C63.3306062,8.94841986 64.9115599,8.99871064 70.182199,9.23680607 C75.0556156,9.4570247 77.7022447,10.2632488 79.4635556,10.9407993 C81.7966924,11.8385683 83.4617731,12.9111764 85.2107825,14.6428689 C86.9599902,16.3745613 88.043126,18.0233525 88.9498727,20.3331924 C89.6343971,22.0770647 90.4486835,24.6974895 90.6709059,29.5226545 C90.9113823,34.741109 90.9623744,36.3064097 90.9623744,49.520706 C90.9623744,62.7348058 90.9113823,64.3001064 90.6709059,69.518561 C90.4486835,74.343726 89.6343971,76.9641508 88.9498727,78.708023 C88.043126,81.0180595 86.9599902,82.6666542 85.2107825,84.3983466 C83.4617731,86.1302355 81.7966924,87.2026472 79.4635556,88.1004162 C77.7022447,88.7781631 75.0556156,89.5843872 70.182199,89.8044094 C64.9123535,90.0425048 63.3315983,90.0929921 49.9843654,90.0929921 C36.6369341,90.0929921 35.0563773,90.0425048 29.7863334,89.8044094 C24.9129168,89.5843872 22.2662877,88.7781631 20.5049767,88.1004162 C18.1718399,87.2026472 16.5067592,86.1302355 14.7575515,84.3983466 C13.0085422,82.6666542 11.925208,81.0180595 11.0186596,78.708023 C10.3341353,76.9641508 9.51984889,74.343726 9.29742807,69.518561 C9.05695169,64.3001064 9.006158,62.7348058 9.006158,49.520706 C9.006158,36.3064097 9.05695169,34.741109 9.29742807,29.5226545 C9.51984889,24.6974895 10.3341353,22.0770647 11.0186596,20.3331924 C11.925208,18.0233525 13.0085422,16.3745613 14.7575515,14.6428689 C16.5067592,12.9111764 18.1718399,11.8385683 20.5049767,10.9407993 C22.2662877,10.2632488 24.9129168,9.4570247 29.7863334,9.23680607 C35.0569725,8.99871064 36.6379261,8.94841986 49.9843654,8.94841986 Z" id="Shape"></path>
            <path d="M49.9843654,66.0170652 C40.7823739,66.0170652 33.3228441,58.6313922 33.3228441,49.520706 C33.3228441,40.4098233 40.7823739,33.0241503 49.9843654,33.0241503 C59.1861585,33.0241503 66.6456882,40.4098233 66.6456882,49.520706 C66.6456882,58.6313922 59.1861585,66.0170652 49.9843654,66.0170652 Z M49.9843654,24.1071621 C35.808362,24.1071621 24.3166861,35.485059 24.3166861,49.520706 C24.3166861,63.5561565 35.808362,74.9340533 49.9843654,74.9340533 C64.1601704,74.9340533 75.6518462,63.5561565 75.6518462,49.520706 C75.6518462,35.485059 64.1601704,24.1071621 49.9843654,24.1071621 Z" id="Shape"></path>
            <path d="M82.6641534,23.1031145 C82.6641534,26.3830165 79.9786354,29.0417488 76.6659343,29.0417488 C73.3534317,29.0417488 70.6679137,26.3830165 70.6679137,23.1031145 C70.6679137,19.8232125 73.3534317,17.1644802 76.6659343,17.1644802 C79.9786354,17.1644802 82.6641534,19.8232125 82.6641534,23.1031145 Z" id="Path"></path>
        </g>
    </g>
</svg>