<?xml version="1.0" standalone="no"?>
<!DOCTYPE svg PUBLIC "-//W3C//DTD SVG 20010904//EN"
 "http://www.w3.org/TR/2001/REC-SVG-20010904/DTD/svg10.dtd">
<svg version="1.0" xmlns="http://www.w3.org/2000/svg"
 width="984.000000pt" height="368.000000pt" viewBox="0 0 984.000000 368.000000"
 preserveAspectRatio="xMidYMid meet">

<g transform="translate(0.000000,368.000000) scale(0.100000,-0.100000)"
fill="#000000" stroke="none">
<path d="M8030 3359 c-60 -24 -135 -119 -176 -225 -25 -62 -27 -81 -27 -199 0
-118 2 -137 27 -199 15 -38 40 -87 56 -110 32 -48 106 -116 125 -116 21 0 25
-26 25 -172 l0 -141 -42 -56 c-23 -31 -54 -70 -68 -87 -14 -17 -35 -44 -47
-60 -30 -40 -157 -203 -182 -234 -11 -14 -49 -63 -86 -110 -36 -47 -72 -93
-80 -103 -23 -27 -18 -39 29 -73 l42 -32 70 90 c38 49 74 95 79 101 6 7 19 24
30 38 89 119 250 319 255 319 4 0 10 -156 14 -347 3 -192 8 -426 10 -520 l4
-173 -3919 0 -3919 0 0 -50 0 -50 4620 0 4620 0 0 50 0 50 -639 0 -639 0 -6
223 c-14 505 -21 877 -15 877 4 0 77 -36 163 -80 l156 -81 116 113 c64 62 147
142 185 178 38 36 69 69 69 73 0 12 -62 87 -72 87 -5 0 -33 -24 -62 -52 -29
-29 -98 -97 -153 -150 l-101 -98 -49 23 c-105 49 -239 117 -250 127 -9 8 -13
52 -13 154 l0 143 43 17 c95 36 182 157 213 294 19 83 15 247 -7 312 -35 106
-92 190 -158 232 -41 25 -53 28 -130 27 -48 0 -97 -5 -111 -10z m186 -131 c84
-74 119 -177 112 -323 -4 -70 -11 -105 -32 -152 -96 -213 -270 -181 -337 62
-16 61 -20 96 -16 151 6 78 46 194 81 233 61 69 134 80 192 29z"/>
<path d="M1000 2936 c0 -1 36 -323 80 -715 44 -391 80 -714 80 -716 0 -3 49
-5 109 -5 l109 0 6 48 c23 180 76 797 76 885 0 70 4 106 10 102 6 -3 10 -49
10 -103 0 -84 72 -846 85 -909 5 -22 10 -23 111 -23 75 0 106 4 109 13 5 13
165 1384 165 1411 0 13 -14 16 -90 16 -64 0 -92 -4 -95 -12 -7 -22 -85 -979
-86 -1063 l-2 -80 -9 100 c-5 55 -31 307 -58 560 -28 253 -50 468 -50 478 0
15 -11 17 -89 17 l-89 0 -6 -47 c-13 -101 -87 -874 -95 -988 -8 -113 -8 -115
-10 -40 0 44 -19 302 -41 573 -22 270 -40 494 -40 497 0 3 -43 5 -95 5 -52 0
-95 -2 -95 -4z"/>
<path d="M3015 2918 c-3 -13 -4 -336 -3 -718 l3 -695 83 -3 82 -3 0 721 0 720
-80 0 c-74 0 -80 -2 -85 -22z"/>
<path d="M7180 2677 c0 -216 14 -480 36 -674 l5 -53 39 0 c21 0 41 4 44 9 3 5
15 111 26 235 19 219 28 683 14 720 -5 13 -22 16 -85 16 l-79 0 0 -253z"/>
<path d="M2332 2597 c-18 -5 -52 -27 -76 -49 -68 -59 -71 -79 -71 -523 l0
-381 25 -49 c20 -39 37 -56 79 -79 46 -25 64 -29 130 -28 114 0 181 35 223
115 19 36 23 62 26 175 l4 132 -86 0 -86 0 0 -125 c0 -145 -9 -165 -78 -165
-68 0 -72 12 -72 213 l0 177 160 0 160 0 0 208 c0 119 -5 224 -11 247 -14 51
-81 116 -136 133 -48 14 -145 14 -191 -1z m156 -144 c8 -12 12 -61 12 -160 l0
-143 -75 0 -75 0 0 136 c0 142 6 169 43 184 30 13 79 4 95 -17z"/>
<path d="M3662 2595 c-58 -25 -94 -57 -113 -99 -17 -38 -19 -73 -19 -451 0
-377 2 -413 19 -450 35 -77 95 -107 216 -107 99 0 153 20 199 74 45 52 56 102
56 252 l0 126 -85 0 -85 0 0 -134 c0 -152 -8 -172 -72 -182 -30 -5 -41 -2 -62
19 l-26 26 0 379 c0 424 -2 415 70 427 27 5 42 2 62 -15 27 -20 27 -24 30
-138 l3 -117 80 0 80 0 3 105 c2 58 -2 123 -9 146 -15 55 -63 112 -113 135
-51 23 -185 25 -234 4z"/>
<path d="M4450 2597 c-52 -17 -106 -77 -124 -138 -22 -73 -23 -751 -2 -822 31
-105 96 -148 223 -150 129 -1 209 48 238 147 12 40 15 123 15 427 0 463 -2
472 -115 525 -39 19 -66 24 -125 23 -41 -1 -91 -6 -110 -12z m150 -127 c36
-19 40 -63 40 -414 0 -352 -5 -407 -40 -426 -30 -16 -76 -12 -101 9 l-24 19 0
387 0 387 28 24 c30 25 66 31 97 14z"/>
<path d="M5345 2569 l-45 -42 0 37 0 36 -80 0 -80 0 2 -547 3 -548 80 0 80 0
3 455 c2 420 4 457 21 478 22 30 83 34 109 9 15 -16 17 -59 22 -480 l5 -462
80 0 80 0 5 463 c5 444 6 464 24 478 22 16 83 18 106 4 13 -8 16 -76 20 -477
l5 -468 83 -3 83 -3 -3 503 c-3 475 -4 505 -22 535 -28 45 -83 73 -145 73 -61
0 -97 -16 -138 -63 l-30 -34 -18 29 c-28 47 -71 68 -143 68 -59 0 -65 -2 -107
-41z"/>
<path d="M6430 2593 c-19 -8 -52 -31 -72 -50 -60 -58 -63 -85 -63 -523 l0
-385 25 -45 c38 -68 108 -103 209 -102 114 1 181 35 223 115 19 36 23 62 26
175 l4 132 -86 0 -86 0 0 -125 c0 -145 -9 -165 -78 -165 -68 0 -72 12 -72 213
l0 177 160 0 160 0 0 208 c0 114 -5 224 -10 244 -25 90 -118 148 -235 147 -38
0 -86 -7 -105 -16z m168 -140 c8 -12 12 -61 12 -160 l0 -143 -75 0 -75 0 0
143 c0 151 3 162 50 180 24 10 74 -2 88 -20z"/>
<path d="M7182 1638 l3 -133 80 0 80 0 3 133 3 132 -86 0 -86 0 3 -132z"/>
</g>
</svg>
